<svg xmlns="http://www.w3.org/2000/svg" xmlns:xlink="http://www.w3.org/1999/xlink" width="2000px" zoomAndPan="magnify" viewBox="0 0 810 809.999993" height="2000px" preserveAspectRatio="xMidYMid meet" version="1.0"><defs><clipPath id="7efb30b591"><path d="M 243 243 L 567 243 L 567 567 L 243 567 Z M 243 243 " clip-rule="nonzero"/></clipPath></defs><g clip-path="url(#7efb30b591)"><path fill="#ffcc00" d="M 405.082031 242.90625 C 494.523438 242.90625 567.0625 315.445312 567.0625 404.886719 C 567.0625 494.355469 494.523438 566.871094 405.082031 566.871094 C 315.613281 566.871094 243.097656 494.355469 243.097656 404.886719 C 243.097656 315.445312 315.613281 242.90625 405.082031 242.90625 " fill-opacity="1" fill-rule="evenodd"/></g><path fill="#000000" d="M 405.082031 256.859375 C 445.957031 256.859375 482.964844 273.429688 509.75 300.21875 C 536.539062 327.003906 553.109375 364.011719 553.109375 404.886719 C 553.109375 445.765625 536.539062 482.769531 509.75 509.558594 C 482.964844 536.347656 445.957031 552.917969 405.082031 552.917969 C 364.203125 552.917969 327.199219 536.347656 300.410156 509.558594 C 273.621094 482.769531 257.050781 445.765625 257.050781 404.886719 C 257.050781 364.011719 273.621094 327.003906 300.410156 300.21875 C 327.199219 273.429688 364.203125 256.859375 405.082031 256.859375 Z M 503.289062 306.703125 C 478.15625 281.566406 443.429688 266.027344 405.082031 266.027344 C 366.730469 266.027344 332.003906 281.566406 306.871094 306.703125 C 281.761719 331.835938 266.195312 366.539062 266.195312 404.886719 C 266.195312 443.238281 281.761719 477.964844 306.871094 503.097656 C 332.003906 528.207031 366.730469 543.773438 405.082031 543.773438 C 443.429688 543.773438 478.15625 528.207031 503.289062 503.097656 C 528.402344 477.964844 543.941406 443.238281 543.941406 404.886719 C 543.941406 366.539062 528.402344 331.835938 503.289062 306.703125 " fill-opacity="1" fill-rule="nonzero"/><path fill="#000000" d="M 362.4375 329.308594 C 373.933594 329.308594 383.257812 347.285156 383.257812 369.445312 C 383.257812 391.605469 373.933594 409.582031 362.4375 409.582031 C 350.945312 409.582031 341.644531 391.605469 341.644531 369.445312 C 341.644531 347.285156 350.945312 329.308594 362.4375 329.308594 " fill-opacity="1" fill-rule="evenodd"/><path fill="#000000" d="M 444.347656 329.308594 C 455.839844 329.308594 465.164062 347.285156 465.164062 369.445312 C 465.164062 391.605469 455.839844 409.582031 444.347656 409.582031 C 432.851562 409.582031 423.527344 391.605469 423.527344 369.445312 C 423.527344 347.285156 432.851562 329.308594 444.347656 329.308594 " fill-opacity="1" fill-rule="evenodd"/><path fill="#000000" d="M 505.078125 429.507812 C 499.601562 451.800781 486.855469 471.253906 469.503906 485.207031 C 451.859375 499.363281 429.453125 507.859375 405.082031 507.859375 C 380.707031 507.859375 358.300781 499.363281 340.660156 485.207031 C 323.308594 471.253906 310.5625 451.800781 305.082031 429.507812 C 303.382812 429.082031 301.796875 428.277344 300.453125 427.203125 C 298.351562 425.503906 296.832031 423.132812 296.226562 420.40625 C 295.824219 418.507812 297.03125 416.628906 298.933594 416.226562 C 300.835938 415.824219 302.710938 417.03125 303.113281 418.929688 C 303.359375 420.050781 303.988281 421.03125 304.859375 421.726562 C 305.707031 422.398438 306.78125 422.800781 307.96875 422.800781 C 309.152344 422.800781 310.226562 422.398438 311.074219 421.726562 C 311.925781 421.03125 312.550781 420.050781 312.796875 418.929688 C 313.222656 417.03125 315.101562 415.824219 317 416.226562 C 318.902344 416.628906 320.109375 418.507812 319.683594 420.40625 C 319.101562 423.132812 317.582031 425.527344 315.480469 427.203125 C 314.496094 427.988281 313.421875 428.613281 312.238281 429.058594 C 317.492188 449.320312 329.210938 466.984375 345.0625 479.730469 C 361.476562 492.902344 382.363281 500.792969 405.082031 500.792969 C 427.800781 500.792969 448.660156 492.902344 465.097656 479.730469 C 480.929688 466.984375 492.667969 449.320312 497.921875 429.058594 C 496.738281 428.613281 495.640625 427.988281 494.679688 427.203125 C 492.578125 425.527344 491.058594 423.132812 490.476562 420.40625 C 490.050781 418.507812 491.257812 416.628906 493.160156 416.226562 C 495.0625 415.824219 496.9375 417.03125 497.339844 418.929688 C 497.585938 420.050781 498.214844 421.03125 499.085938 421.726562 C 499.933594 422.398438 501.007812 422.800781 502.195312 422.800781 C 503.378906 422.800781 504.453125 422.398438 505.300781 421.726562 C 506.152344 421.03125 506.777344 420.050781 507.023438 418.929688 C 507.449219 417.03125 509.328125 415.824219 511.226562 416.226562 C 513.128906 416.628906 514.335938 418.507812 513.910156 420.40625 C 513.328125 423.132812 511.808594 425.527344 509.707031 427.203125 C 508.367188 428.277344 506.777344 429.082031 505.078125 429.507812 " fill-opacity="1" fill-rule="nonzero"/><path fill="#ffffff" d="M 367.46875 338.476562 C 370.285156 338.476562 372.566406 342.882812 372.566406 348.316406 C 372.566406 353.726562 370.285156 358.132812 367.46875 358.132812 C 364.652344 358.132812 362.371094 353.726562 362.371094 348.316406 C 362.371094 342.882812 364.652344 338.476562 367.46875 338.476562 " fill-opacity="1" fill-rule="evenodd"/><path fill="#ffffff" d="M 450.695312 338.476562 C 453.515625 338.476562 455.796875 342.882812 455.796875 348.316406 C 455.796875 353.726562 453.515625 358.132812 450.695312 358.132812 C 447.878906 358.132812 445.597656 353.726562 445.597656 348.316406 C 445.597656 342.882812 447.878906 338.476562 450.695312 338.476562 " fill-opacity="1" fill-rule="evenodd"/></svg>